# xmcd
#
# Track frame offsets:
# 150
# 25277
# 37147
# 48569
# 67967
# 79738
# 89406
# 102957
# 114751
# 128506
# 139313
# 154825
# 163212
# 179520
# 204384
#
# Disc length: 2920 seconds
#
#
# Revision: 0
# Processed by: cddbd v1.5.1PL2 Copyright (c) Steve Scherf et al.
# Submitted via: FreeRIP 2.942 
#
DISCID=cc0b660f
DTITLE=Gloria - Jetzt geht's los! - Teï to zaène
DYEAR=2000
DGENRE=Folklore
TTITLE0=Jetzt geht's los!(Teï to zaène)
TTITLE1=Sommerwalzer (Letní valèík)
TTITLE2=Kozlova
TTITLE3=The power of love (Síla lásky)
TTITLE4=Tysinalita
TTITLE5=Der Jongleur
TTITLE6=Für Alex (Alexovy)
TTITLE7=Es ging ein Jëger derch den Forst
TTITLE8=Gruss an Schwabhausen (Pozdrav Schwabhausenu)
TTITLE9=Solo für zwei (Solo pro dva)
TTITLE10=Nebel Polka (Pro Mráèka)
TTITLE11=Ragtime
TTITLE12=Für Röbi (Praporeèník)
TTITLE13=Sousedská z Markvartic
TTITLE14=Tillenberg Polka
EXTD=KApela Gloria pod taktovkou petra Gurského.
EXTT0=
EXTT1=
EXTT2=
EXTT3=
EXTT4=
EXTT5=
EXTT6=
EXTT7=
EXTT8=
EXTT9=
EXTT10=
EXTT11=
EXTT12=
EXTT13=
EXTT14=
PLAYORDER=
